<svg xmlns="http://www.w3.org/2000/svg" width="224" height="220" viewBox="0 0 224 220"><polygon points="26,143 36,148 36,66 26,71" fill="#3c434b" stroke="#1f2429" stroke-width="1" stroke-linejoin="round"/><polygon points="36,148 46,143 46,71 36,66" fill="#2d333a" stroke="#1f2429" stroke-width="1" stroke-linejoin="round"/><polygon points="30,92 35,89 35,120 30,123" fill="#a0ff38"/><polygon points="36,62 47,68 36,74 25,68" fill="#f7f5ef" stroke="#1f2429" stroke-width="1" stroke-linejoin="round"/><polygon points="36,133 50,140 36,149 22,140" fill="#2d333a" stroke="#1f2429" stroke-width="1" stroke-linejoin="round"/><polygon points="154,207 164,212 164,130 154,135" fill="#3c434b" stroke="#1f2429" stroke-width="1" stroke-linejoin="round"/><polygon points="164,212 174,207 174,135 164,130" fill="#2d333a" stroke="#1f2429" stroke-width="1" stroke-linejoin="round"/><polygon points="158,156 163,153 163,184 158,187" fill="#a0ff38"/><polygon points="164,126 175,132 164,138 153,132" fill="#f7f5ef" stroke="#1f2429" stroke-width="1" stroke-linejoin="round"/><polygon points="164,197 178,204 164,213 150,204" fill="#2d333a" stroke="#1f2429" stroke-width="1" stroke-linejoin="round"/><polygon points="36,85 164,149 164,131 36,67" fill="#e8e6e0" stroke="#1f2429" stroke-width="1" stroke-linejoin="round"/><polygon points="39,77 161,141 161,146 39,82" fill="#a0ff38"/><polygon points="36,67 164,131 164,125 36,61" fill="#525860" stroke="#1f2429" stroke-width="1" stroke-linejoin="round"/></svg>