<svg xmlns="http://www.w3.org/2000/svg" width="272" height="236" viewBox="0 0 272 236"><polygon points="56,144 40,136 40,102 56,110" fill="#e8e6e0" stroke="#1f2429" stroke-width="1" stroke-linejoin="round"/><polygon points="56,144 40,136 40,128 56,136" fill="#2d333a" stroke="#1f2429" stroke-width="1" stroke-linejoin="round"/><polygon points="56,118 40,110 40,104 56,112" fill="#3c434b"/><polygon points="56,132 40,124 40,116 56,124" fill="#184a34" stroke="#1f2429" stroke-width="0.7" stroke-linejoin="round"/><polygon points="54.72,132.86 41.28,126.13999999999999 41.28,115.13999999999999 54.72,121.86000000000001" fill="#a0ff38"/><polygon points="56,110 40,102 40,97 56,105" fill="#f7f5ef" stroke="#1f2429" stroke-width="1" stroke-linejoin="round"/><polygon points="184,208 200,216 200,182 184,174" fill="#e8e6e0" stroke="#1f2429" stroke-width="1" stroke-linejoin="round"/><polygon points="184,208 200,216 200,208 184,200" fill="#2d333a" stroke="#1f2429" stroke-width="1" stroke-linejoin="round"/><polygon points="184,182 200,190 200,184 184,176" fill="#3c434b"/><polygon points="184,196 200,204 200,196 184,188" fill="#184a34" stroke="#1f2429" stroke-width="0.7" stroke-linejoin="round"/><polygon points="185.28,198.14 198.72,204.86 198.72,193.86 185.28,187.14" fill="#a0ff38"/><polygon points="184,174 200,182 200,177 184,169" fill="#f7f5ef" stroke="#1f2429" stroke-width="1" stroke-linejoin="round"/><polygon points="56,144 46,139 46,67 56,72" fill="#3c434b" stroke="#1f2429" stroke-width="1" stroke-linejoin="round"/><polygon points="56,144 66,139 66,67 56,72" fill="#2d333a" stroke="#1f2429" stroke-width="1" stroke-linejoin="round"/><polygon points="49,100 54,97 54,126 49,129" fill="#a0ff38"/><polygon points="58,97 63,100 63,129 58,126" fill="#a0ff38"/><polygon points="56,67 67,72 56,78 45,72" fill="#f7f5ef" stroke="#1f2429" stroke-width="1" stroke-linejoin="round"/><polygon points="184,208 174,203 174,131 184,136" fill="#3c434b" stroke="#1f2429" stroke-width="1" stroke-linejoin="round"/><polygon points="184,208 194,203 194,131 184,136" fill="#2d333a" stroke="#1f2429" stroke-width="1" stroke-linejoin="round"/><polygon points="177,164 182,161 182,190 177,193" fill="#a0ff38"/><polygon points="186,161 191,164 191,193 186,190" fill="#a0ff38"/><polygon points="184,131 195,136 184,142 173,136" fill="#f7f5ef" stroke="#1f2429" stroke-width="1" stroke-linejoin="round"/><polygon points="54,90 186,154 186,136 54,72" fill="#e8e6e0" stroke="#1f2429" stroke-width="1" stroke-linejoin="round"/><polygon points="60,86 180,150 180,145 60,81" fill="#a0ff38"/><polygon points="54,72 186,136 186,131 54,67" fill="#525860" stroke="#1f2429" stroke-width="1" stroke-linejoin="round"/></svg>