<svg xmlns="http://www.w3.org/2000/svg" width="58" height="82" viewBox="0 0 58 82" shape-rendering="crispEdges">
<ellipse cx="29" cy="76" rx="15" ry="5" fill="#11181d" opacity=".5"/><path fill="#232d33" d="m18 70 11-6 11 6-11 7z"/>
<path fill="#424f56" d="M24 28h10v42H24z"/><path fill="#65737a" d="M27 30h3v38h-3z"/><path fill="#202a30" d="M31 28h3v42h-3z"/>
<path fill="#1f292f" d="m12 22 17-9 17 9-17 10z"/><path fill="#4a5960" d="m16 18 13-7 13 7-13 8z"/>
<path fill="#ffd35a" d="m18 17 11-6 11 6-11 6z"/><path fill="#fff1a6" d="m23 15 6-3 6 3-6 4z"/>
<path fill="#d79b26" d="M18 17v8l11 6v-8z"/><path fill="#a56b18" d="m29 23 11-6v8l-11 6z"/>
<path fill="#ffd35a" opacity=".16" d="m8 21 21-12 21 12-21 14z"/></svg>