<svg xmlns="http://www.w3.org/2000/svg" width="72" height="68" viewBox="0 0 72 68">
<path fill="#293137" d="m8 43 28-15 28 15-28 17z"/><path fill="#e0ded8" d="m11 38 25-14 25 14-25 15z"/>
<path fill="#b7bdba" d="M11 38v9l25 15v-9z"/><path fill="#818a8a" d="m36 53 25-15v9L36 62z"/>
<path fill="#1d4629" d="m17 37 19-10 19 10-19 11z"/>
<path fill="#0f6f31" d="M20 31 26 18l7 5 5-14 7 14 6-6 4 14-8 8-19 1z"/>
<path fill="#22a848" d="m25 27 5-11 6 8 5-10 5 14-6 8-9 1z"/><path fill="#58d264" d="m31 22 5-7 4 9-5 6z"/></svg>