<svg xmlns="http://www.w3.org/2000/svg" width="48" height="48" viewBox="0 0 48 48">
  <g transform="translate(24 24)">
    <rect x="-18" y="-16" width="36" height="32" fill="#000000" fill-opacity="0.74"/>
    <path fill="#FFFFFF" fill-rule="evenodd" d="M 14 -24 L 14 -20 12 -20 12 -24 -12 -24 -12 -20 -14 -20 -14 -24 -24 -24 -24 -14 -20 -14 -20 -12 -24 -12 -24 12 -20 12 -20 14 -24 14 -24 24 -14 24 -14 20 -12 20 -12 24 12 24 12 20 14 20 14 24 24 24 24 14 20 14 20 12 24 12 24 -12 20 -12 20 -14 24 -14 24 -24 14 -24 M 16 -16 L 16 -22 22 -22 22 -16 16 -16 M 14 -18 L 14 -14 18 -14 18 -10 22 -10 22 10 18 10 18 14 14 14 14 18 10 18 10 22 -10 22 -10 18 -14 18 -14 14 -18 14 -18 10 -22 10 -22 -10 -18 -10 -18 -14 -14 -14 -14 -18 -10 -18 -10 -22 10 -22 10 -18 14 -18 M 22 16 L 22 22 16 22 16 16 22 16 M -22 -16 L -22 -22 -16 -22 -16 -16 -22 -16 M -16 16 L -16 22 -22 22 -22 16 -16 16 M 8 -16 L 8 -20 -8 -20 -8 -16 -12 -16 -12 -12 -16 -12 -16 -8 -20 -8 -20 8 -16 8 -16 12 -12 12 -12 16 -8 16 -8 20 8 20 8 16 12 16 12 12 16 12 16 8 20 8 20 -8 16 -8 16 -12 12 -12 12 -16 8 -16 Z"/>
  </g>
</svg>
